<svg width="32" height="32" viewBox="0 0 32 32" fill="none" xmlns="http://www.w3.org/2000/svg">
<path fill-rule="evenodd" clip-rule="evenodd" d="M15.8595 6.5638C16.3489 7.22889 16.5775 8.00386 16.7059 8.84137L15.5347 9.79689C14.6923 10.3585 13.1961 11.1515 12.5061 10.2867C11.5675 9.11497 12.5101 5.83573 14.2751 5.83573C14.8607 5.83573 15.4223 6.18313 15.8595 6.5638ZM17.8812 11.9658C17.785 11.0817 17.7649 10.1206 17.6686 9.2253L19.967 7.34357C20.7091 6.73788 21.5355 6.53167 22.0289 6.8301C22.434 7.07317 22.5663 7.67849 22.4019 8.49161L21.8925 10.2646C21.0982 10.2698 20.296 10.4949 19.4897 10.9397C18.9402 11.2506 18.4067 11.5927 17.8812 11.9658ZM24.6282 14.2486C24.897 13.3353 24.6282 12.1001 23.0638 11.3661C22.8999 11.3104 22.7323 11.2659 22.5624 11.2329L21.2346 15.8659C21.3951 15.9033 21.5635 15.9369 21.74 15.9666C23.3005 16.1961 24.3274 15.2369 24.6282 14.2486ZM21.6278 11.1827C21.0742 11.2293 20.5126 11.4122 19.931 11.7323C19.279 12.1009 18.6531 12.514 18.0577 12.9686C18.3385 14.1134 18.9362 15.0505 20.3642 15.6028L21.6278 11.1827ZM20.1196 16.4797L20.0634 16.6534C19.7585 17.3626 19.3774 17.787 18.9282 17.9129C18.4027 18.0605 17.7048 17.8307 16.8664 17.229L15.1254 15.7561C15.8234 14.9474 16.5414 14.2277 17.2835 13.5896C17.7328 14.9843 18.6073 15.9201 20.1196 16.4797ZM11.2465 13.6633L13.8258 15.843C12.9153 16.7296 11.9525 17.1338 10.7692 17.1338C10.5326 17.1338 10.3801 17.105 10.2277 16.8487C9.80654 16.1455 9.99508 14.5338 10.332 13.9152C10.6008 13.5109 10.8454 13.4431 11.2465 13.6633ZM21.5997 16.864C23.6053 17.1612 25.0774 15.9033 25.4947 14.5081C25.8597 13.2851 25.5348 11.5101 23.4208 10.5317C23.3085 10.4772 22.9354 10.3841 22.8111 10.3573L23.2844 8.69218C23.5372 7.47157 23.2524 6.50965 22.5022 6.05359C21.6639 5.54895 20.4485 5.77884 19.3935 6.64124L17.5082 8.18479C17.3397 7.4038 17.0629 6.65449 16.5615 5.98261C16.5414 5.95855 16.5214 5.9357 16.4973 5.91522C14.5237 4.16834 13.0797 5.15068 12.5502 5.65532C11.9164 6.2598 11.4551 7.19567 11.2906 8.2205C11.1222 9.28271 11.3027 10.2426 11.796 10.8535C12.2894 11.4709 13.4968 12.251 16.06 10.5402L16.8222 9.91932C16.8783 10.7713 16.9225 11.7858 17.0549 12.5993C16.1443 13.3422 15.2698 14.195 14.4355 15.1697C14.1386 14.9206 11.8321 12.9518 11.7359 12.8957C10.8895 12.4128 10.1033 12.6077 9.56577 13.4316C9.56173 13.4401 9.55777 13.4489 9.5497 13.4573C9.08039 14.2844 8.80359 16.246 9.44538 17.3162C9.73818 17.7951 10.1915 18.0535 10.729 18.0418H10.7691C12.5541 18.0418 13.7294 17.2279 14.5196 16.4321L16.3247 17.956C17.1631 18.5597 17.9253 18.8629 18.6072 18.8629C18.8037 18.8629 18.9923 18.838 19.1727 18.7875C19.9068 18.5818 20.4925 17.9753 20.9137 16.9836L20.9859 16.7402L21.5997 16.864ZM23.3286 24.0462C24.1268 20.3121 27.4401 18.9883 27.4401 13.2466C27.4401 6.71663 24.1188 2.50441 18.5592 1.9789C18.5592 1.97852 18.5551 1.97852 18.5551 1.97852C13.7295 1.48994 9.22893 4.71625 8.0937 9.48124C8.02951 9.74556 8.04154 10.2021 8.04961 10.5679C8.06567 11.178 8.06164 11.5928 7.70061 12.1571L4.55981 17.0565C6.77402 18.0954 7.09095 18.3558 7.09095 18.7589V24.4044C7.09095 24.512 7.14311 24.597 7.2434 24.6643C7.70471 24.7694 10.4083 24.7105 11.4392 24.6876C11.8443 24.6792 12.1653 24.672 12.3217 24.672C12.5704 24.672 12.7749 24.8746 12.7749 25.1257V30.07H24.6804C23.4449 27.4217 23.0157 25.5002 23.3286 24.0462Z" fill="url(#paint0_linear_496_6682)"/>
<defs>
<linearGradient id="paint0_linear_496_6682" x1="27.7493" y1="15.9999" x2="7.2701" y2="23.45" gradientUnits="userSpaceOnUse">
<stop stop-color="#219580"/>
<stop offset="1" stop-color="#346079"/>
</linearGradient>
</defs>
</svg>
