<svg width="60" height="60" viewBox="0 0 60 60" fill="none" xmlns="http://www.w3.org/2000/svg">
<path fill-rule="evenodd" clip-rule="evenodd" d="M47.5626 47.4221C46.704 48.2816 45.3119 48.2814 44.4533 47.4221C43.0697 46.0373 44.0619 43.6682 46.0083 43.6682C47.9532 43.6682 48.9478 46.0373 47.5626 47.4221ZM46.0083 42.0656C45.2769 42.0641 44.5608 42.2749 43.9469 42.6725L40.7862 39.5124C40.4742 39.2004 39.9672 39.2004 39.6539 39.5124C39.5038 39.6628 39.4194 39.8666 39.4194 40.0791C39.4194 40.2916 39.5038 40.4953 39.6539 40.6457L42.8138 43.8068C41.8645 45.278 42.0319 47.267 43.3202 48.5554C44.8055 50.0402 47.2109 50.0415 48.6963 48.5554C50.1777 47.0728 50.1777 44.6616 48.6963 43.1799C47.9785 42.461 47.0231 42.0656 46.0083 42.0656ZM52.6395 32.0579C51.4268 32.0579 50.4409 31.072 50.4409 29.8595C50.4409 28.6468 51.4267 27.6599 52.6395 27.6599C53.8514 27.6599 54.838 28.6468 54.838 29.8595C54.8378 31.072 53.8514 32.0579 52.6395 32.0579ZM52.6395 26.0572C50.8177 26.0572 49.2924 27.3456 48.9238 29.0581H44.4539C44.2414 29.0581 44.0377 29.1426 43.8874 29.2928C43.7372 29.443 43.6528 29.6468 43.6528 29.8593C43.6528 30.0717 43.7372 30.2755 43.8874 30.4257C44.0377 30.576 44.2414 30.6604 44.4539 30.6604H48.9238C49.2924 32.372 50.8177 33.6603 52.6395 33.6603C54.7352 33.6603 56.4402 31.9552 56.4402 29.8594C56.4401 27.7635 54.7352 26.0572 52.6395 26.0572ZM12.4372 12.2955C13.2979 11.4365 14.6892 11.4387 15.5471 12.2955C16.4039 13.1532 16.4039 14.5474 15.5471 15.4054H15.5458C14.6884 16.2643 13.2976 16.2653 12.4372 15.4054C11.5791 14.5485 11.5791 13.1532 12.4372 12.2955ZM13.9915 17.652C14.7343 17.652 15.4446 17.4395 16.0536 17.0452L19.2136 20.2051C19.5258 20.5175 20.0347 20.5167 20.3459 20.2051C20.496 20.0548 20.5804 19.851 20.5804 19.6384C20.5804 19.4259 20.496 19.2221 20.3459 19.0718L17.1859 15.9118C18.1352 14.4395 17.9678 12.4506 16.6795 11.1633C15.1927 9.67683 12.7912 9.67611 11.3035 11.1633C9.82213 12.6447 9.82213 15.057 11.3035 16.5388C12.022 17.2566 12.9767 17.652 13.9915 17.652ZM29.9999 5.02155C31.2125 5.02155 32.1984 6.00747 32.1984 7.21983C32.1984 8.43255 31.2126 9.41847 29.9999 9.41847C28.7872 9.41847 27.8015 8.43255 27.8015 7.21983C27.8015 6.00747 28.7872 5.02155 29.9999 5.02155ZM29.1984 10.9355V15.4054C29.202 15.6156 29.2881 15.8159 29.438 15.9632C29.5879 16.1106 29.7897 16.1931 29.9999 16.1931C30.2101 16.1931 30.4119 16.1106 30.5618 15.9632C30.7117 15.8159 30.7977 15.6156 30.8014 15.4054V10.9355C32.5136 10.5658 33.8006 9.04155 33.8006 7.21983C33.8006 5.12403 32.0958 3.41919 29.9999 3.41919C27.9041 3.41919 26.1991 5.12403 26.1991 7.21983C26.1991 9.04023 27.4861 10.5658 29.1984 10.9355ZM33.3631 33.8985C33.3253 33.4894 33.1228 32.9112 32.0094 32.4104C30.558 31.7858 29.3219 32.2924 27.3998 31.5023C25.545 30.6456 25.1231 29.4363 25.0947 28.5731C25.0933 28.5507 25.0947 28.5282 25.0954 28.5056C25.1413 27.5934 25.5835 26.3457 27.4235 25.5819C27.965 25.348 28.5599 25.193 29.1986 25.1193V24.2284C29.1986 23.7861 29.5578 23.427 30.0001 23.427C30.4424 23.427 30.8016 23.7861 30.8016 24.2284V25.1098C32.1676 25.2219 33.3802 25.5358 34.4903 26.0638C34.89 26.2527 35.0595 26.7313 34.8697 27.1309C34.6807 27.5306 34.2019 27.7003 33.8022 27.5112C32.703 26.9888 31.4667 26.7142 30.0238 26.6715C28.6669 26.6447 26.7112 27.3193 26.697 28.556C26.7085 28.8082 26.7901 29.4501 28.0589 30.0408C28.7706 30.3368 29.3742 30.3774 30.073 30.4234C30.815 30.4724 31.6557 30.5291 32.6333 30.934C32.6394 30.9371 32.6475 30.9393 32.6536 30.9426C34.4658 31.7544 34.9115 32.9722 34.9668 33.8515C34.9688 33.8867 34.9688 33.9231 34.9655 33.9584C34.9027 34.8525 34.4476 36.0821 32.6455 36.864C32.0695 37.1064 31.4531 37.2647 30.8016 37.3361V38.2197C30.8016 38.3249 30.7809 38.4291 30.7407 38.5264C30.7004 38.6236 30.6414 38.712 30.5669 38.7864C30.4925 38.8608 30.4041 38.9198 30.3069 38.9601C30.2096 39.0003 30.1054 39.021 30.0001 39.0209C29.8949 39.021 29.7907 39.0003 29.6934 38.96C29.5962 38.9198 29.5078 38.8608 29.4334 38.7864C29.3589 38.7119 29.2999 38.6236 29.2596 38.5264C29.2194 38.4291 29.1986 38.3249 29.1986 38.2197V37.3439C27.9097 37.2402 26.6693 36.9208 25.5019 36.3909C25.4061 36.3474 25.3198 36.2855 25.2479 36.2086C25.176 36.1318 25.12 36.0415 25.0831 35.943C25.0461 35.8444 25.029 35.7396 25.0326 35.6344C25.0363 35.5292 25.0606 35.4258 25.1042 35.3301C25.2873 34.9274 25.7626 34.7499 26.165 34.9326C27.8156 35.6823 30.2483 36.1464 32.015 35.3908C33.1152 34.9136 33.3213 34.3205 33.3631 33.8985ZM32.488 53.4311C32.488 54.2849 31.7939 54.978 30.9397 54.978H29.0599C28.2058 54.978 27.5117 54.2849 27.5117 53.4311V50.0512H32.488V53.4311ZM26.0364 48.4486C25.9169 47.2832 25.7353 46.1754 25.4861 45.0964H34.5136C34.2645 46.1754 34.0828 47.2832 33.9633 48.4486H26.0364ZM19.3972 29.4298C19.3972 23.5842 24.1532 18.8269 29.9999 18.8269C35.8465 18.8269 40.6026 23.5842 40.6026 29.4298C40.6026 32.1337 39.496 34.0908 38.0942 36.5692C37.0369 38.4418 35.8134 40.6061 34.943 43.494H25.0567C24.1864 40.6062 22.9643 38.4418 21.9055 36.5692C20.5038 34.0908 19.3972 32.1339 19.3972 29.4298ZM35.569 48.5181L35.494 49.312C35.4787 49.5131 35.3879 49.7011 35.2399 49.8382C35.0919 49.9753 34.8976 50.0514 34.6958 50.0513H34.0902V53.4312C34.0902 55.1682 32.677 56.5806 30.9397 56.5806H29.0599C27.3226 56.5806 25.9094 55.1682 25.9094 53.4312V50.0513H25.3051C25.1034 50.0516 24.909 49.9757 24.7608 49.8388C24.6126 49.702 24.5215 49.5142 24.5057 49.3131C24.426 48.3195 24.2926 47.2785 24.1032 46.3005C23.3914 42.6244 22.1112 40.1915 20.5098 37.3588C19.1142 34.888 17.7948 32.5548 17.7948 29.4299C17.7948 22.7008 23.27 17.2248 29.9998 17.2248C36.7302 17.2248 42.2055 22.7008 42.2055 29.4299C42.2055 32.5548 40.8854 34.888 39.4898 37.3588C38.3582 39.3588 37.1252 41.5421 36.3116 44.5197C35.9406 45.8755 35.7212 47.1261 35.569 48.5181ZM15.5472 47.4221C14.1625 48.8044 11.7931 47.8142 11.7931 45.8668C11.7931 43.9084 14.1712 42.9361 15.5472 44.3123C16.4044 45.1695 16.4052 46.5618 15.5472 47.4221ZM19.2136 39.5126L16.0523 42.6736C14.5804 41.7238 12.5918 41.8916 11.3036 43.1789C9.81865 44.6636 9.81937 47.0699 11.3036 48.5544C12.7864 50.0374 15.1976 50.0374 16.6797 48.5544C17.9524 47.281 18.1526 45.2961 17.1861 43.8059L20.346 40.6458C20.4961 40.4955 20.5805 40.2917 20.5805 40.0792C20.5805 39.8667 20.4961 39.6629 20.346 39.5126C20.0326 39.2006 19.5254 39.2006 19.2136 39.5126ZM7.36033 32.0579C6.14833 32.0579 5.16193 31.0709 5.16193 29.8595C5.16193 28.6468 6.14833 27.6599 7.36033 27.6599C8.57305 27.6599 9.55945 28.6468 9.55945 29.8595C9.55945 31.0708 8.57305 32.0579 7.36033 32.0579ZM15.5459 30.6605C15.7584 30.6605 15.9621 30.5761 16.1124 30.4259C16.2626 30.2756 16.347 30.0719 16.347 29.8594C16.347 29.6469 16.2626 29.4432 16.1124 29.2929C15.9621 29.1427 15.7584 29.0583 15.5459 29.0583H11.076C10.7074 27.3458 9.18205 26.0573 7.36033 26.0573C5.26453 26.0573 3.55957 27.7636 3.55957 29.8595C3.55957 31.9553 5.26441 33.6604 7.36033 33.6604C9.18205 33.6604 10.7074 32.373 11.076 30.6605H15.5459ZM44.4533 12.2955C45.3114 11.4395 46.7065 11.4394 47.5626 12.2955C48.4207 13.1532 48.4207 14.5485 47.5626 15.4054C46.7058 16.263 45.3115 16.263 44.454 15.4063C44.454 15.4054 44.454 15.4054 44.4534 15.4054C43.5958 14.5474 43.5958 13.1532 44.4533 12.2955ZM40.2204 20.439C40.3255 20.4393 40.4296 20.4188 40.5267 20.3787C40.6238 20.3385 40.712 20.2795 40.7862 20.2051L43.9475 17.0441C45.4337 18.0041 47.4204 17.8143 48.6961 16.5388C50.1775 15.056 50.1775 12.6448 48.6961 11.1633C47.2141 9.68043 44.8022 9.68043 43.3201 11.1633C42.0318 12.4506 41.8644 14.4395 42.8137 15.9118L39.6538 19.0718C39.1505 19.5754 39.5093 20.439 40.2204 20.439Z" fill="white"/>
</svg>
