<svg width="43" height="45" viewBox="0 0 43 45" fill="none" xmlns="http://www.w3.org/2000/svg">
<path fill-rule="evenodd" clip-rule="evenodd" d="M31.4554 22.3464C37.652 22.3464 42.6832 27.3777 42.6832 33.5743C42.6832 39.7709 37.652 44.8021 31.4554 44.8021C25.2583 44.8021 20.2275 39.7709 20.2275 33.5743C20.2275 27.3777 25.2583 22.3464 31.4554 22.3464ZM33.4291 31.6006V27.4889H29.4817V31.6006H25.3695V35.548H29.4817V39.6602H33.4291V35.548H37.5408V31.6006H33.4291Z" fill="#141416"/>
<path d="M20.0156 16.0262C21.2626 16.0262 22.2735 15.0154 22.2735 13.7684C22.2735 12.5214 21.2626 11.5106 20.0156 11.5106C18.7687 11.5106 17.7578 12.5214 17.7578 13.7684C17.7578 15.0154 18.7687 16.0262 20.0156 16.0262Z" fill="black"/>
<path fill-rule="evenodd" clip-rule="evenodd" d="M7.49129 5.39685H4.8784V10.0419C4.8784 10.2134 4.91219 10.3832 4.97783 10.5417C5.04348 10.7001 5.13971 10.8441 5.261 10.9654C5.3823 11.0866 5.5263 11.1828 5.68478 11.2484C5.84325 11.314 6.01309 11.3477 6.1846 11.3476H6.18556C6.53186 11.3476 6.86398 11.2101 7.10885 10.9652C7.35372 10.7203 7.49129 10.3882 7.49129 10.0419C7.49809 9.85581 7.57679 9.67962 7.71084 9.55038C7.84489 9.42113 8.02384 9.34892 8.21004 9.34892C8.39625 9.34892 8.5752 9.42113 8.70925 9.55038C8.8433 9.67962 8.922 9.85581 8.92879 10.0419C8.92879 10.7694 8.63977 11.4672 8.12532 11.9817C7.61086 12.4961 6.91311 12.7851 6.18556 12.7851H6.1846C5.45701 12.7851 4.75921 12.4961 4.24468 11.9817C3.73015 11.4672 3.44102 10.7695 3.4409 10.0419V5.39685H0V39.6601H20.3473C19.3228 37.7955 18.7871 35.7018 18.79 33.5742C18.79 27.6417 22.8778 22.6564 28.3873 21.2836V5.39685H8.92879V2.74371C8.92885 2.38342 8.85795 2.02665 8.72011 1.69377C8.58228 1.36089 8.38023 1.05843 8.12549 0.803643C7.87075 0.548859 7.56832 0.346752 7.23546 0.208862C6.90261 0.0709716 6.54585 -5.49625e-09 6.18556 0H6.1846C5.45693 0 4.75905 0.289068 4.24451 0.803614C3.72996 1.31816 3.4409 2.01603 3.4409 2.74371V5.39685H4.8784V2.74371C4.87833 2.57216 4.91208 2.40227 4.9777 2.24377C5.04332 2.08526 5.13953 1.94124 5.26084 1.81994C5.38214 1.69863 5.52616 1.60242 5.68467 1.5368C5.84317 1.47118 6.01305 1.43744 6.1846 1.4375H6.18556C6.35707 1.4375 6.52691 1.47129 6.68535 1.53694C6.8438 1.60259 6.98777 1.69881 7.10902 1.82011C7.23028 1.94141 7.32645 2.08541 7.39204 2.24388C7.45763 2.40235 7.49135 2.5722 7.49129 2.74371V5.39685ZM4.15965 29.6202H10.8507C11.0414 29.6202 11.2242 29.5444 11.359 29.4096C11.4938 29.2749 11.5695 29.092 11.5695 28.9014C11.5695 28.7108 11.4938 28.528 11.359 28.3932C11.2242 28.2584 11.0414 28.1827 10.8507 28.1827H4.15965C3.97356 28.1895 3.79737 28.2682 3.66813 28.4022C3.53888 28.5363 3.46667 28.7152 3.46667 28.9014C3.46667 29.0876 3.53888 29.2666 3.66813 29.4006C3.79737 29.5347 3.97356 29.6134 4.15965 29.6202ZM4.15965 24.9421H19.4316C19.6177 24.9353 19.7939 24.8566 19.9232 24.7225C20.0524 24.5885 20.1246 24.4095 20.1246 24.2233C20.1246 24.0371 20.0524 23.8582 19.9232 23.7241C19.7939 23.5901 19.6177 23.5114 19.4316 23.5046H4.15965C3.96902 23.5046 3.7862 23.5803 3.65141 23.7151C3.51662 23.8499 3.4409 24.0327 3.4409 24.2233C3.4409 24.4139 3.51662 24.5968 3.65141 24.7315C3.7862 24.8663 3.96902 24.9421 4.15965 24.9421ZM4.15965 21.2026H19.4316C19.6177 21.1959 19.7939 21.1171 19.9232 20.9831C20.0524 20.8491 20.1246 20.6701 20.1246 20.4839C20.1246 20.2977 20.0524 20.1187 19.9232 19.9847C19.7939 19.8506 19.6177 19.7719 19.4316 19.7651H4.15965C3.97356 19.7719 3.79737 19.8506 3.66813 19.9847C3.53888 20.1187 3.46667 20.2977 3.46667 20.4839C3.46667 20.6701 3.53888 20.8491 3.66813 20.9831C3.79737 21.1171 3.97356 21.1959 4.15965 21.2026ZM20.0158 10.0735C17.9764 10.0735 16.3209 11.729 16.3209 13.7684C16.3209 15.8077 17.9764 17.4637 20.0158 17.4637C22.0551 17.4637 23.7111 15.8077 23.7111 13.7684C23.7111 11.729 22.0551 10.0735 20.0158 10.0735Z" fill="#141416"/>
</svg>
