<svg width="18" height="17" viewBox="0 0 18 17" fill="none" xmlns="http://www.w3.org/2000/svg">
<path d="M5.5729 16.5192C5.5 16.5192 5.42837 16.499 5.36512 16.4608C5.30186 16.4225 5.24917 16.3675 5.21227 16.3011C3.82281 13.8011 0.118537 8.4778 0.08132 8.42432C0.0218132 8.33888 -0.00659372 8.23368 0.00129172 8.12794C0.00917716 8.02221 0.0528283 7.923 0.124266 7.84846L1.26332 6.65964C1.33289 6.58704 1.42435 6.54249 1.5218 6.53373C1.61924 6.52498 1.71652 6.55257 1.7967 6.61172L5.48588 9.33225C7.9545 5.989 10.2476 3.6792 11.7562 2.31625C13.4546 0.782063 14.5358 0.0913761 14.581 0.0629342C14.646 0.021752 14.7204 -1.28264e-06 14.7962 8.94284e-10H16.639C16.7237 -5.69541e-06 16.8065 0.0272014 16.8763 0.0780142C16.9461 0.128827 16.9996 0.200845 17.0298 0.284521C17.06 0.368197 17.0653 0.459578 17.0452 0.546549C17.0251 0.633521 16.9804 0.711974 16.9171 0.771508C11.6839 5.69425 5.99311 16.1906 5.93624 16.2961C5.89994 16.3634 5.8475 16.4195 5.7842 16.4586C5.7209 16.4977 5.64897 16.5186 5.57561 16.5191L5.5729 16.5192Z" fill="url(#paint0_linear_496_5417)"/>
<defs>
<linearGradient id="paint0_linear_496_5417" x1="17.2877" y1="8.25958" x2="3.04083" y2="14.8415" gradientUnits="userSpaceOnUse">
<stop stop-color="#219580"/>
<stop offset="1" stop-color="#346079"/>
</linearGradient>
</defs>
</svg>
