<svg width="26" height="26" viewBox="0 0 26 26" fill="none" xmlns="http://www.w3.org/2000/svg">
<path d="M21.9011 20.431C21.3775 18.8726 19.2905 17.8971 17.8025 17.2432C17.2196 16.9879 15.6057 16.5547 15.4118 15.8207C15.3424 15.5563 15.3517 15.307 15.4087 15.068C15.3181 15.0858 15.2261 15.095 15.1338 15.0953H14.1643C13.7923 15.0949 13.4356 14.9469 13.1726 14.6839C12.9096 14.4208 12.7617 14.0641 12.7613 13.6921C12.7613 12.9191 13.3905 12.2907 14.1643 12.2907H15.1338C15.4542 12.2907 15.7578 12.3991 16.0028 12.5926C16.3513 12.5466 16.6952 12.4713 17.0311 12.3674C17.4551 11.479 17.7858 10.4166 17.8599 9.5022C18.1764 5.58972 15.7779 3.30068 12.3388 3.6964C9.83842 3.98422 8.34472 5.84868 8.18326 8.249C8.01998 10.6956 8.92712 12.5026 9.89068 13.8281C10.3127 14.4076 10.756 14.7802 10.6878 15.4786C10.6088 16.3043 9.72584 16.5344 9.0943 16.7882C8.34602 17.0887 7.54002 17.5448 7.15938 17.7556C5.8482 18.4797 4.4091 19.3518 4.08566 20.5447C3.36936 23.1883 5.7884 23.9891 7.78546 24.3589C9.49938 24.675 11.432 24.7 13.0216 24.7C15.8969 24.7 21.0673 24.5848 21.9011 22.4234C22.1382 21.8101 22.0366 20.8327 21.9011 20.431Z" fill="url(#paint0_linear_64_898)"/>
<path d="M15.7475 13.2972C15.6811 13.195 15.5903 13.1109 15.4832 13.0527C15.3762 12.9944 15.2563 12.9638 15.1344 12.9636H14.1649C14.0673 12.961 13.9703 12.978 13.8794 13.0135C13.7885 13.049 13.7056 13.1024 13.6357 13.1705C13.5658 13.2385 13.5102 13.3199 13.4723 13.4098C13.4344 13.4997 13.4148 13.5963 13.4148 13.6939C13.4148 13.7915 13.4344 13.8881 13.4723 13.978C13.5102 14.0679 13.5658 14.1493 13.6357 14.2174C13.7056 14.2855 13.7885 14.3388 13.8794 14.3744C13.9703 14.4099 14.0673 14.4269 14.1649 14.4243H15.1344C15.2678 14.4242 15.3986 14.3872 15.5123 14.3175C15.626 14.2479 15.7183 14.1481 15.779 14.0293C17.1307 13.923 18.3064 13.5101 19.1317 12.9004C19.3212 13.0226 19.5453 13.0941 19.7871 13.0941H19.848C20.0082 13.0941 20.1668 13.0626 20.3148 13.0013C20.4627 12.9399 20.5972 12.8501 20.7104 12.7367C20.8236 12.6234 20.9134 12.4889 20.9745 12.3408C21.0357 12.1928 21.0671 12.0341 21.0669 11.8739V9.43825C21.0669 9.2082 21.0016 8.98286 20.8787 8.78844C20.7557 8.59402 20.58 8.43852 20.3721 8.34001C20.1933 4.42883 16.9555 1.29999 13.0004 1.29999C9.04523 1.29999 5.80693 4.42883 5.62883 8.34001C5.42079 8.43837 5.24497 8.59382 5.12188 8.78826C4.99879 8.9827 4.93349 9.20812 4.93359 9.43825V11.8739C4.93339 12.034 4.96473 12.1926 5.02583 12.3406C5.08693 12.4886 5.1766 12.623 5.28969 12.7364C5.40279 12.8497 5.53711 12.9396 5.68497 13.001C5.83283 13.0624 5.99134 13.094 6.15143 13.0941H6.21305C6.37321 13.0941 6.53178 13.0625 6.67972 13.0011C6.82766 12.9398 6.96205 12.8499 7.07522 12.7366C7.1884 12.6232 7.27813 12.4887 7.33929 12.3407C7.40045 12.1927 7.43185 12.0341 7.43167 11.8739V9.43825C7.43155 9.21141 7.36799 8.98913 7.24816 8.79653C7.12834 8.60392 6.95703 8.44868 6.75359 8.34833C6.92753 5.05283 9.66221 2.42605 13.0004 2.42605C16.3372 2.42605 19.0732 5.05283 19.2463 8.34833C19.0431 8.44886 18.872 8.60417 18.7523 8.79675C18.6327 8.98933 18.5692 9.21151 18.569 9.43825V11.8739C18.569 12.0356 18.6005 12.1862 18.6559 12.3268C17.9456 12.8351 16.9115 13.1973 15.7475 13.2972Z" fill="url(#paint1_linear_64_898)"/>
<defs>
<linearGradient id="paint0_linear_64_898" x1="22.2878" y1="14.1761" x2="6.31768" y2="20.3161" gradientUnits="userSpaceOnUse">
<stop stop-color="#219580"/>
<stop offset="1" stop-color="#346079"/>
</linearGradient>
<linearGradient id="paint1_linear_64_898" x1="21.2849" y1="7.86226" x2="8.73101" y2="14.7668" gradientUnits="userSpaceOnUse">
<stop stop-color="#219580"/>
<stop offset="1" stop-color="#346079"/>
</linearGradient>
</defs>
</svg>
