<svg width="46" height="46" viewBox="0 0 46 46" fill="none" xmlns="http://www.w3.org/2000/svg">
<path d="M30.6667 4.31249C30.6667 2.98931 29.594 1.91666 28.2708 1.91666C26.9477 1.91666 25.875 2.98931 25.875 4.31249V7.18749C25.875 8.51067 26.9477 9.58332 28.2708 9.58332C29.594 9.58332 30.6667 8.51067 30.6667 7.18749V4.31249Z" fill="#141416"/>
<path d="M32.5837 4.79166V7.18749C32.5837 8.33124 32.1293 9.42814 31.3206 10.2369C30.5118 11.0456 29.4149 11.5 28.2712 11.5C27.1274 11.5 26.0305 11.0456 25.2218 10.2369C24.413 9.42814 23.9587 8.33124 23.9587 7.18749V4.79166H15.3337V7.18749C15.3337 8.33124 14.8793 9.42814 14.0706 10.2369C13.2618 11.0456 12.1649 11.5 11.0212 11.5C9.87741 11.5 8.78051 11.0456 7.97176 10.2369C7.16301 9.42814 6.70866 8.33124 6.70866 7.18749V4.79166C5.43783 4.79166 4.21905 5.29649 3.32044 6.1951C2.42183 7.09372 1.91699 8.31249 1.91699 9.58332V14.375H37.3753V9.58332C37.3753 8.31249 36.8705 7.09372 35.9719 6.1951C35.0733 5.29649 33.8545 4.79166 32.5837 4.79166Z" fill="#141416"/>
<path d="M13.4167 4.31249C13.4167 2.98931 12.344 1.91666 11.0208 1.91666C9.69765 1.91666 8.625 2.98931 8.625 4.31249V7.18749C8.625 8.51067 9.69765 9.58332 11.0208 9.58332C12.344 9.58332 13.4167 8.51067 13.4167 7.18749V4.31249Z" fill="#141416"/>
<path d="M23.0003 34.5C22.9996 32.6016 23.4695 30.7326 24.3679 29.0602C25.2663 27.3878 26.5652 25.9642 28.1485 24.9167H26.8337C26.3253 24.9167 25.8378 24.7147 25.4784 24.3553C25.1189 23.9958 24.917 23.5083 24.917 23V21.0833C24.917 20.575 25.1189 20.0875 25.4784 19.728C25.8378 19.3686 26.3253 19.1667 26.8337 19.1667H28.7503C29.2587 19.1667 29.7462 19.3686 30.1056 19.728C30.4651 20.0875 30.667 20.575 30.667 21.0833V23C30.6668 23.2472 30.6183 23.492 30.5242 23.7207C32.7165 22.8961 35.1114 22.7758 37.3753 23.3766V16.2917H1.91699V34.5C1.91699 35.1292 2.04093 35.7523 2.28174 36.3337C2.52254 36.915 2.87549 37.4433 3.32044 37.8882C3.76539 38.3332 4.29362 38.6861 4.87497 38.9269C5.45632 39.1677 6.07941 39.2917 6.70866 39.2917H24.0545C23.3604 37.7896 23.0007 36.1547 23.0003 34.5ZM13.417 32.5833C13.417 33.0917 13.2151 33.5792 12.8556 33.9386C12.4962 34.2981 12.0087 34.5 11.5003 34.5H9.58366C9.07533 34.5 8.58782 34.2981 8.22837 33.9386C7.86893 33.5792 7.66699 33.0917 7.66699 32.5833V30.6667C7.66699 30.1583 7.86893 29.6708 8.22837 29.3114C8.58782 28.9519 9.07533 28.75 9.58366 28.75H11.5003C12.0087 28.75 12.4962 28.9519 12.8556 29.3114C13.2151 29.6708 13.417 30.1583 13.417 30.6667V32.5833ZM13.417 23C13.417 23.5083 13.2151 23.9958 12.8556 24.3553C12.4962 24.7147 12.0087 24.9167 11.5003 24.9167H9.58366C9.07533 24.9167 8.58782 24.7147 8.22837 24.3553C7.86893 23.9958 7.66699 23.5083 7.66699 23V21.0833C7.66699 20.575 7.86893 20.0875 8.22837 19.728C8.58782 19.3686 9.07533 19.1667 9.58366 19.1667H11.5003C12.0087 19.1667 12.4962 19.3686 12.8556 19.728C13.2151 20.0875 13.417 20.575 13.417 21.0833V23ZM22.042 32.5833C22.042 33.0917 21.8401 33.5792 21.4806 33.9386C21.1212 34.2981 20.6337 34.5 20.1253 34.5H18.2087C17.7003 34.5 17.2128 34.2981 16.8534 33.9386C16.4939 33.5792 16.292 33.0917 16.292 32.5833V30.6667C16.292 30.1583 16.4939 29.6708 16.8534 29.3114C17.2128 28.9519 17.7003 28.75 18.2087 28.75H20.1253C20.6337 28.75 21.1212 28.9519 21.4806 29.3114C21.8401 29.6708 22.042 30.1583 22.042 30.6667V32.5833ZM22.042 23C22.042 23.5083 21.8401 23.9958 21.4806 24.3553C21.1212 24.7147 20.6337 24.9167 20.1253 24.9167H18.2087C17.7003 24.9167 17.2128 24.7147 16.8534 24.3553C16.4939 23.9958 16.292 23.5083 16.292 23V21.0833C16.292 20.575 16.4939 20.0875 16.8534 19.728C17.2128 19.3686 17.7003 19.1667 18.2087 19.1667H20.1253C20.6337 19.1667 21.1212 19.3686 21.4806 19.728C21.8401 20.0875 22.042 20.575 22.042 21.0833V23Z" fill="#141416"/>
<path d="M34.5003 24.9167C32.6049 24.9167 30.7521 25.4787 29.1761 26.5317C27.6001 27.5848 26.3718 29.0815 25.6465 30.8326C24.9211 32.5837 24.7314 34.5106 25.1011 36.3696C25.4709 38.2286 26.3836 39.9362 27.7239 41.2764C29.0641 42.6167 30.7717 43.5294 32.6307 43.8992C34.4897 44.269 36.4166 44.0792 38.1677 43.3538C39.9188 42.6285 41.4156 41.4002 42.4686 39.8242C43.5216 38.2482 44.0837 36.3954 44.0837 34.5C44.0837 33.2415 43.8358 31.9953 43.3542 30.8326C42.8726 29.6699 42.1667 28.6134 41.2768 27.7236C40.3869 26.8337 39.3304 26.1278 38.1677 25.6461C37.005 25.1645 35.7588 24.9167 34.5003 24.9167ZM38.0529 38.0525C37.8732 38.2322 37.6294 38.3331 37.3753 38.3331C37.1212 38.3331 36.8775 38.2322 36.6978 38.0525L33.8228 35.1775C33.6431 34.9979 33.5421 34.7541 33.542 34.5V28.75C33.542 28.4958 33.643 28.2521 33.8227 28.0723C34.0024 27.8926 34.2462 27.7917 34.5003 27.7917C34.7545 27.7917 34.9983 27.8926 35.178 28.0723C35.3577 28.2521 35.4587 28.4958 35.4587 28.75V34.1032L38.0529 36.6974C38.2325 36.8772 38.3335 37.1209 38.3335 37.375C38.3335 37.6291 38.2325 37.8728 38.0529 38.0525Z" fill="#141416"/>
</svg>
