<svg width="46" height="46" viewBox="0 0 46 46" fill="none" xmlns="http://www.w3.org/2000/svg">
<path d="M38.0941 5.74999H34.5003V3.83332C34.5003 3.32499 34.2984 2.83748 33.9389 2.47804C33.5795 2.11859 33.092 1.91666 32.5837 1.91666C32.0753 1.91666 31.5878 2.11859 31.2284 2.47804C30.8689 2.83748 30.667 3.32499 30.667 3.83332V5.74999H24.917V3.83332C24.917 3.32499 24.7151 2.83748 24.3556 2.47804C23.9962 2.11859 23.5087 1.91666 23.0003 1.91666C22.492 1.91666 22.0045 2.11859 21.645 2.47804C21.2856 2.83748 21.0837 3.32499 21.0837 3.83332V5.74999H15.3337V3.83332C15.3337 3.32499 15.1317 2.83748 14.7723 2.47804C14.4128 2.11859 13.9253 1.91666 13.417 1.91666C12.9087 1.91666 12.4211 2.11859 12.0617 2.47804C11.7023 2.83748 11.5003 3.32499 11.5003 3.83332V5.74999H7.90658C6.31866 5.75202 4.79637 6.38371 3.67354 7.50654C2.55072 8.62936 1.91902 10.1517 1.91699 11.7396V17.25H44.0837V11.7396C44.0816 10.1517 43.4499 8.62936 42.3271 7.50654C41.2043 6.38371 39.682 5.75202 38.0941 5.74999ZM1.91699 38.0937C1.91902 39.6817 2.55072 41.204 3.67354 42.3268C4.79637 43.4496 6.31866 44.0813 7.90658 44.0833H38.0941C39.682 44.0813 41.2043 43.4496 42.3271 42.3268C43.4499 41.204 44.0816 39.6817 44.0837 38.0937V21.0833H1.91699V38.0937ZM15.8952 30.3926C16.2547 30.0333 16.7421 29.8314 17.2503 29.8314C17.7586 29.8314 18.246 30.0333 18.6054 30.3926L21.0837 32.8689L27.3952 26.5592C27.7567 26.2101 28.2409 26.0169 28.7434 26.0213C29.246 26.0257 29.7267 26.2272 30.0821 26.5826C30.4374 26.938 30.639 27.4187 30.6434 27.9212C30.6477 28.4238 30.4545 28.9079 30.1054 29.2694L22.4387 36.9361C22.0793 37.2954 21.5919 37.4972 21.0837 37.4972C20.5754 37.4972 20.088 37.2954 19.7286 36.9361L15.8952 33.1027C15.5359 32.7433 15.3341 32.2559 15.3341 31.7477C15.3341 31.2394 15.5359 30.752 15.8952 30.3926Z" fill="url(#paint0_linear_65_3080)"/>
<defs>
<linearGradient id="paint0_linear_65_3080" x1="44.6535" y1="23" x2="9.04528" y2="38.9319" gradientUnits="userSpaceOnUse">
<stop stop-color="#219580"/>
<stop offset="1" stop-color="#346079"/>
</linearGradient>
</defs>
</svg>
