<svg width="16" height="21" viewBox="0 0 16 21" fill="none" xmlns="http://www.w3.org/2000/svg">
<path d="M15.6004 5.2H10.4004V0L15.6004 5.2Z" fill="url(#paint0_linear_64_889)"/>
<path d="M10.4 6.93316C9.94036 6.93302 9.49957 6.75039 9.17453 6.42539C8.84949 6.1004 8.66679 5.65964 8.66658 5.2V1.95038e-08H1.73342C1.5058 -3.41275e-05 1.2804 0.0447701 1.07009 0.131854C0.859782 0.218938 0.668689 0.346597 0.507723 0.507539C0.346756 0.668481 0.21907 0.859555 0.131954 1.06985C0.0448382 1.28014 -2.56128e-09 1.50554 0 1.73316V19.0658C0 19.5255 0.182628 19.9664 0.507707 20.2915C0.832786 20.6166 1.27369 20.7992 1.73342 20.7992L13.8666 20.8C14.3263 20.7999 14.7671 20.6172 15.0921 20.2921C15.4172 19.9671 15.5999 19.5263 15.6 19.0666V6.93316H10.4ZM2.6 2.6H6.06658V4.33316H2.6V2.6ZM2.6 6.06684H6.06658V7.8H2.6V6.06684ZM6.06658 18.2H2.6V16.4666H6.06658V18.2ZM6.06658 14.7334H2.6V13H6.06658V14.7334ZM13 16.4666H11.2666V18.2H9.53342V16.4666H7.8V14.7334H9.53342V13H11.2666V14.7334H13V16.4666ZM13 11.2666H2.6V9.53316H13V11.2666Z" fill="url(#paint1_linear_64_889)"/>
<defs>
<linearGradient id="paint0_linear_64_889" x1="15.6707" y1="2.6" x2="11.2795" y2="4.56472" gradientUnits="userSpaceOnUse">
<stop stop-color="#219580"/>
<stop offset="1" stop-color="#346079"/>
</linearGradient>
<linearGradient id="paint1_linear_64_889" x1="15.8108" y1="10.4" x2="1.60019" y2="15.1686" gradientUnits="userSpaceOnUse">
<stop stop-color="#219580"/>
<stop offset="1" stop-color="#346079"/>
</linearGradient>
</defs>
</svg>
