<svg width="19" height="19" viewBox="0 0 19 19" fill="none" xmlns="http://www.w3.org/2000/svg">
<path d="M7.54933 6.7234C8.04283 7.0524 8.63433 7.2449 9.27133 7.2449C9.91183 7.2449 10.5068 7.0524 11.0003 6.7234C11.4349 6.4379 11.7916 6.04885 12.0384 5.59124C12.2852 5.13363 12.4144 4.62183 12.4143 4.1019C12.4143 2.3694 11.0073 0.962402 9.27133 0.962402C7.54233 0.962402 6.13533 2.3694 6.13533 4.1019C6.13523 4.62183 6.26441 5.13363 6.51124 5.59124C6.75807 6.04885 7.1148 6.4379 7.54933 6.7234Z" fill="url(#paint0_linear_156_1193)"/>
<path d="M11.7037 6.84241C11.5742 6.95791 11.4342 7.06291 11.2872 7.16091C10.6922 7.55991 9.99568 7.76991 9.27118 7.76991C8.55368 7.76991 7.85718 7.55991 7.25868 7.16091C7.11168 7.06291 6.97168 6.95791 6.84568 6.84241C5.52618 7.21341 4.54618 8.40341 4.49368 9.82791H14.0557C14.0032 8.40341 13.0232 7.21341 11.7037 6.84241ZM15.7409 17.0624H15.1127L15.7287 11.4274C15.7602 11.1544 15.6727 10.8814 15.4872 10.6749C15.3052 10.4719 15.0392 10.3529 14.7662 10.3529H3.78318C3.51018 10.3529 3.24418 10.4719 3.06218 10.6749C2.87668 10.8814 2.78918 11.1544 2.82068 11.4274L3.43668 17.0624H2.80843C2.73881 17.0624 2.67204 17.0901 2.62281 17.1393C2.57359 17.1885 2.54593 17.2553 2.54593 17.3249C2.54593 17.3945 2.57359 17.4613 2.62281 17.5105C2.67204 17.5598 2.73881 17.5874 2.80843 17.5874H15.7409C15.8105 17.5874 15.8773 17.5598 15.9265 17.5105C15.9758 17.4613 16.0034 17.3945 16.0034 17.3249C16.0034 17.2553 15.9758 17.1885 15.9265 17.1393C15.8773 17.0901 15.8105 17.0624 15.7409 17.0624ZM9.27468 12.1029C9.76991 12.1029 10.2448 12.2996 10.595 12.6498C10.9452 13 11.1419 13.4749 11.1419 13.9702C11.1419 14.4654 10.9452 14.9403 10.595 15.2905C10.2448 15.6407 9.76991 15.8374 9.27468 15.8374C8.77945 15.8374 8.30451 15.6407 7.95433 15.2905C7.60416 14.9403 7.40743 14.4654 7.40743 13.9702C7.40743 13.4749 7.60416 13 7.95433 12.6498C8.30451 12.2996 8.77945 12.1029 9.27468 12.1029Z" fill="url(#paint1_linear_156_1193)"/>
<defs>
<linearGradient id="paint0_linear_156_1193" x1="9.74277" y1="-4.34485" x2="7.03997" y2="-3.70923" gradientUnits="userSpaceOnUse">
<stop stop-color="#219580"/>
<stop offset="1" stop-color="#346079"/>
</linearGradient>
<linearGradient id="paint1_linear_156_1193" x1="10.2776" y1="-2.23462" x2="4.65294" y2="-0.577029" gradientUnits="userSpaceOnUse">
<stop stop-color="#219580"/>
<stop offset="1" stop-color="#346079"/>
</linearGradient>
</defs>
</svg>
