<svg width="19" height="19" viewBox="0 0 19 19" fill="none" xmlns="http://www.w3.org/2000/svg">
<path d="M11.4499 9.81891C11.4499 11.3182 10.2301 12.5379 8.73088 12.5379C7.23163 12.5379 6.01189 11.3182 6.01189 9.81891C6.01189 8.31962 7.23163 7.09985 8.73088 7.09985C9.28437 7.09985 9.7995 7.26651 10.2295 7.55168L11.8063 5.97485C11.7707 5.94869 11.7348 5.92291 11.6986 5.8975C10.6293 5.15025 9.55809 4.77258 8.51027 4.77258C8.4143 4.77258 8.31858 4.77573 8.223 4.78208C6.9587 4.86812 5.78085 5.43096 4.90723 6.36683C4.03143 7.30353 3.54927 8.52936 3.54927 9.81891C3.54927 11.2025 4.08838 12.5036 5.06725 13.4825C6.0462 14.4614 7.34727 15.0005 8.73084 15.0005C10.1144 15.0005 11.4155 14.4614 12.3944 13.4825C13.3733 12.5036 13.9124 11.2025 13.9124 9.81891C13.9124 8.68004 13.4525 7.58668 12.6221 6.6961L10.998 8.32023C11.2832 8.75025 11.4499 9.26542 11.4499 9.81891Z" fill="url(#paint0_linear_156_1179)"/>
<path d="M8.34678 9.43462L9.43485 8.34654C9.21523 8.24111 8.97469 8.1865 8.73107 8.18677C7.83114 8.18677 7.099 8.91895 7.099 9.81891C7.099 10.7188 7.83114 11.451 8.73107 11.451C9.631 11.451 10.3631 10.7188 10.3631 9.81891C10.3634 9.57529 10.3088 9.33474 10.2034 9.1151L9.11537 10.2031L8.34678 9.43462Z" fill="url(#paint1_linear_156_1179)"/>
<path d="M14.0677 5.25092L13.3915 5.92712C14.4256 7.02204 14.9996 8.38663 14.9996 9.819C14.9996 11.4929 14.3474 13.0669 13.1632 14.2511C11.979 15.4353 10.405 16.0875 8.73109 16.0875C7.05721 16.0875 5.48318 15.4353 4.29895 14.2511C3.11472 13.0669 2.46257 11.4929 2.46257 9.819C2.46257 8.25283 3.04881 6.76336 4.11323 5.62492C5.17525 4.48714 6.60915 3.80257 8.15035 3.69768C9.54345 3.60562 10.9463 4.04571 12.3214 5.00669C12.41 5.06876 12.4971 5.13281 12.5828 5.19878L13.2992 4.48236L13.4139 2.44653C12.0272 1.56193 10.4157 1.08789 8.73113 1.08789C6.39897 1.08789 4.20638 1.99608 2.55731 3.64515C0.908174 5.29421 -1.52588e-05 7.48681 -1.52588e-05 9.81896C-1.52588e-05 12.1511 0.908174 14.3437 2.55728 15.9928C4.20638 17.6418 6.39894 18.5501 8.73109 18.5501C11.0632 18.5501 13.2558 17.6419 14.9049 15.9928C16.554 14.3437 17.4622 12.1511 17.4622 9.81896C17.4622 8.13443 16.9881 6.52286 16.1035 5.13617L14.0677 5.25092Z" fill="url(#paint2_linear_156_1179)"/>
<path d="M14.4068 4.1431L16.6276 4.01792L18.5499 2.09564L16.4543 0L14.532 1.92224L14.4068 4.1431Z" fill="url(#paint3_linear_156_1179)"/>
<defs>
<linearGradient id="paint0_linear_156_1179" x1="9.50314" y1="-3.86761" x2="5.04881" y2="-2.80565" gradientUnits="userSpaceOnUse">
<stop stop-color="#219580"/>
<stop offset="1" stop-color="#346079"/>
</linearGradient>
<linearGradient id="paint1_linear_156_1179" x1="8.97433" y1="5.42926" x2="7.56936" y2="5.75984" gradientUnits="userSpaceOnUse">
<stop stop-color="#219580"/>
<stop offset="1" stop-color="#346079"/>
</linearGradient>
<linearGradient id="paint2_linear_156_1179" x1="10.0324" y1="-13.6636" x2="2.51628" y2="-11.895" gradientUnits="userSpaceOnUse">
<stop stop-color="#219580"/>
<stop offset="1" stop-color="#346079"/>
</linearGradient>
<linearGradient id="paint3_linear_156_1179" x1="16.7871" y1="-3.49996" x2="15.0038" y2="-3.08034" gradientUnits="userSpaceOnUse">
<stop stop-color="#219580"/>
<stop offset="1" stop-color="#346079"/>
</linearGradient>
</defs>
</svg>
