<svg width="20" height="20" viewBox="0 0 20 20" fill="none" xmlns="http://www.w3.org/2000/svg">
<path d="M10 11.4102C11.2891 11.4102 12.4805 11.0469 13.4336 10.4297C14.1719 9.95703 15.1329 10.0352 15.7813 10.625C17.5821 12.2578 18.6055 14.5742 18.6016 17.0078V18.0508C18.6016 19.1289 17.7266 20 16.6485 20H3.35161C2.27348 20 1.39848 19.1289 1.39848 18.0508V17.0078C1.39067 14.5781 2.41411 12.2578 4.21489 10.6289C4.86333 10.0391 5.82817 9.96094 6.56254 10.4336C7.51958 11.0469 8.70708 11.4102 10 11.4102Z" fill="url(#paint0_linear_2017_214)"/>
<path d="M10 9.67188C12.6708 9.67188 14.8359 7.50675 14.8359 4.83594C14.8359 2.16512 12.6708 0 10 0C7.32919 0 5.16406 2.16512 5.16406 4.83594C5.16406 7.50675 7.32919 9.67188 10 9.67188Z" fill="url(#paint1_linear_2017_214)"/>
<defs>
<linearGradient id="paint0_linear_2017_214" x1="11.2821" y1="1.77798" x2="4.59112" y2="4.51997" gradientUnits="userSpaceOnUse">
<stop stop-color="#219580"/>
<stop offset="1" stop-color="#346079"/>
</linearGradient>
<linearGradient id="paint1_linear_2017_214" x1="10.7208" y1="-8.17049" x2="6.55778" y2="-7.19092" gradientUnits="userSpaceOnUse">
<stop stop-color="#219580"/>
<stop offset="1" stop-color="#346079"/>
</linearGradient>
</defs>
</svg>
